<?xml version="1.0" encoding="UTF-8"?>
<svg xmlns="http://www.w3.org/2000/svg" xmlns:xlink="http://www.w3.org/1999/xlink" viewBox="0 0 333 111">
  <defs>
    <style>
      .cls-1 {
        stroke: #3a6cb5;
        stroke-width: 1.84px;
      }

      .cls-1, .cls-2, .cls-3, .cls-4, .cls-5, .cls-6, .cls-7, .cls-8, .cls-9, .cls-10, .cls-11, .cls-12, .cls-13, .cls-14, .cls-15, .cls-16 {
        stroke-linecap: round;
        stroke-linejoin: round;
      }

      .cls-1, .cls-4, .cls-8, .cls-9, .cls-10, .cls-11, .cls-14, .cls-15 {
        fill: none;
      }

      .cls-2, .cls-3, .cls-4, .cls-5, .cls-6, .cls-7, .cls-8, .cls-9, .cls-10, .cls-11, .cls-12, .cls-13, .cls-14, .cls-15, .cls-16 {
        stroke: #2f4f93;
      }

      .cls-2, .cls-7, .cls-17 {
        fill: #2f4f93;
      }

      .cls-3 {
        stroke-width: 3.5px;
      }

      .cls-3, .cls-18, .cls-13 {
        fill: #fff;
      }

      .cls-19, .cls-6, .cls-12 {
        fill: #457cba;
      }

      .cls-4, .cls-7, .cls-12 {
        stroke-width: 2.75px;
      }

      .cls-20 {
        clip-path: url(#clippath-1);
      }

      .cls-21 {
        clip-path: url(#clippath-2);
      }

      .cls-5 {
        stroke-width: 1.42px;
      }

      .cls-5, .cls-22 {
        fill: #3a6cb5;
      }

      .cls-6 {
        stroke-width: 1.5px;
      }

      .cls-8 {
        stroke-width: 2.39px;
      }

      .cls-9 {
        stroke-width: 2px;
      }

      .cls-10, .cls-13 {
        stroke-width: 2.13px;
      }

      .cls-23 {
        clip-path: url(#clippath);
      }

      .cls-14 {
        stroke-width: 1.38px;
      }

      .cls-15 {
        stroke-width: 1.06px;
      }

      .cls-16 {
        fill: #386cb4;
      }
    </style>
    <clipPath id="clippath">
      <polygon class="cls-13" points="27.37 35.37 34.32 28.25 29.31 21.61 20.42 16.66 21.89 28.02 27.37 35.37"/>
    </clipPath>
    <clipPath id="clippath-1">
      <path class="cls-12" d="M42.13,84.19c-3.47,1.97-3.03-3.06-3.81-4.03s-.83.11-2.5-1.72c-.9-.99-1.81-.23-3.11-1.22-1.46-1.11-3.58-5.12-3.99-6.83,0,0-3.27,4.18-3.77,1.48-.88-4.73,2.02-6.43,2.02-6.43,0,0-4.5-12.86-2.13-16.88,0,0-1.68.12-3.73.96-1.92.78-.47-5.11,0-6.2,1.09-2.51,9.32-19.18,25.09-24.65,15.76-5.48,19.72-1.18,19.72-1.18,0,0,18.82-14.63,33.9-1.7s18.06,22.65,18.11,26.33c0,0,.86,4.84,5.4.99,0,0,.3,7.93-4.3,7.49,0,0,.39,5.15-2.81,7.82,0,0,3.05,9.95-1.25,11.41s-4.5-10.53-4.5-10.53l-4.53-3.46c-.01,4.22-4.2,5.05-4.2,5.05-.54-5.96-3.96-6.01-3.96-6.01,0,0-1.97,2.04-5.38.29,0,0-7.56,4.1-10.75-5.52-2.56-7.71-.38-15.61-5.31-15.96-2.99-.21-4.99,5.14-4.09,8.94,0,0-3.01-9.93-7.29-7.58-3.87,2.12-7.2,17.63,5.56,27.72,0,0-1.16,2.93-7.51.67,0,0-4.07,4.34-7.08-2.73,0,0,.43,7.01-5,8.36,0,0-.03-9.76-1.74-12.02,0,0-.49,9.07-3.93,10.8,0,0-.34,5.85-5.7,7.02,0,0,6.04,7.34,2.57,9.32Z"/>
    </clipPath>
    <clipPath id="clippath-2">
      <path class="cls-2" d="M80.45,89.17c-2.46.59-10-.07-8.89-3.69s5.53-.33,8.08-1.34c2.13-.84,5-3.55,7.33-1.88,2.33,1.68-.16,5.38-6.52,6.91Z"/>
    </clipPath>
  </defs>
  <g id="Layer_1" data-name="Layer 1">
    <g>
      <path class="cls-17" d="M307.52,89.84c-.61.07-1.2.38-1.75.93l-2.16,2.33c.84-2.56,2.76-5.92,2.47-8.61-.4-3.67-3.27-6.2-7.05-5.79-3.66.4-6.75,3.33-9.16,6.18.02-.93,0-1.79-.09-2.52-.05-.49-.62-3.39-3.49-3.08-.73.08-1.62.42-2.16,1.22-1.55,2.27-3.72,5.1-4.86,6.52l-.87,1.08c-.19.24-.32.48-.43.72-1.26,1.31-2.7,2.85-4.08,3.93-.25.19-.44.25-.63.25-.32,0-.44-.32-.43-.76,0-.44.13-.95.26-1.39.65-1.95,2.5-5.27,4.1-7.65.38-.56.58-1.13.58-1.63.01-1.51-1.42-2.91-2.94-2.92-.63,0-1.2.18-1.77.68-.32.25-.51.63-.76.94-1.38-1.34-3.13-2.11-5.15-2.13-4.16-.04-7.85,2.48-10.41,5.86-.24.2-.46.44-.65.76-1.35,2.23-4.84,8.59-7.75,10.61-.23.12-.45.31-.63.35-.25.06-.4-.03-.48-.34-.05-.19-.09-.37-.04-.71.42-4.43,3.05-8.67,2.28-11.83-.57-2.35-2.33-2.84-4.17-3.11-.82-.13-1.22-.16-2.07-.41.03-.4,0-.79-.07-1.1-.48-1.98-2.3-2.71-4.03-2.29-2.04.5-3.89,2.59-3.09,5.87.42,1.73,1.98,2.99,3.64,3.1l3.92.48c-1.24,3.77-2.8,8.88-1.97,12.28.76,3.09,3.43,4.66,6.96,3.8,2.02-.49,3.83-1.84,5.44-3.54.88,1.67,2.4,2.85,4.67,2.87,2.9.03,6.13-2.4,9.18-5.65.29,2.4,1.92,3.92,4.56,3.95,3.09.03,6.71-3.53,9.32-6.09l1.6-1.57c-.37,1.84-.83,3.66-1.22,4.97-.18.58-.19,1.07-.15,1.5.17,1.59,1.44,2.5,2.79,2.36.79-.09,1.72-.62,2.36-1.61,2.38-3.72,8.26-13.99,12.47-14.45.61-.07.87.03.96.89.16,1.47-3.45,6.99-2.97,11.38.25,2.32,1.98,4.05,4.43,3.79,2.2-.24,4.06-1.86,5.57-3.38.44-.48,1.28-1.25,2.28-2.35.61-.68.83-1.45.76-2.12-.16-1.47-1.66-2.73-3.12-2.57ZM260.27,94.58c-.51.37-.82.56-1.07.56-.38,0-.44-.44-.43-1.27.01-1.39.41-2.8,1.04-4.12l.47-.77c.14-.23.23-.44.33-.65,1.7-2.6,4.28-4.54,6.49-4.52.82,0,1.38.58,1.75,1.21-1.22,2.38-5.92,7.44-8.59,9.56Z"/>
      <path class="cls-17" d="M250.88,66.26c9,.33,17.95-.27,26.74-2.35,4.67-1.1,2.69-8.29-1.98-7.19-8.39,1.98-16.88,2.4-25.47,2.05-3.47-.14-6.93-.36-10.4-.57,3.62-4.28,6.66-8.98,8.81-14.06.78-1.85.56-3.99-1.34-5.1-1.63-.96-4.22-.48-5.1,1.34-1.64,3.39-3.68,6.57-5.84,9.65-1.2,1.71-3.09,5.24-5.67,4.62-5.59-1.34.03-10.94,1.79-13.47,2.74-3.95-3.72-7.68-6.44-3.76-1.49,2.15-2.8,4.67-3.74,7.27-1.97,3.11-3.72,5.6-4.54,5.78-.56.12-.91-.83-1.48-3.49-.24-1.12-.54-4.93-.47-6.63,5.75-9.05,14.41-23.63,12.72-31.53-.72-3.36-2.88-5.97-6.66-5.16-8.42,1.8-11.51,20.19-12.14,33.21-.1.12-.21.23-.31.37l-.91,1.34c-.4.58-1.42,2.16-2.56,3.83-1.86,2.9-3.18,4.82-4.65,5.09-.98.18-1.89-.74-2.54-4.26-.2-1.05-.29-2.34-.33-3.72,1.98-3.43,3.82-7.19,5.35-10.68,2.15-4.84,5.84-13.9,4.78-19.59-.42-2.25-2.17-4.98-5.47-4.36-3.8.71-6.37,7.96-8.25,15.44-1.4,5.36-2.6,11.77-2.8,17.33-.07.12-.15.24-.22.36l-.47.71c-1.62,2.44-5.29,7.78-7.3,9.42-.43.38-.7.51-.91.55-.21.04-.29-.02-.34-.23-.04-.21-.02-.43-.02-.8.15-3.6,1.86-12.85,2.21-14.38.05-.45.11-.9.04-1.25-.37-1.82-2.36-3.03-4.33-2.63-.98.2-2.1,1.15-2.73,2.37-1.29,2.3-3.49,6.25-5.73,9.62l-.81,1.22c0-.45,0-.89-.04-1.36-.31-4.21-1.78-8.62-5.49-11.29,4.8-3.01,7.49-7.37,7.08-13-.55-7.49-6.54-10.92-12.6-10.48-2.57.19-4.88.93-6.94,2.16-.7-.81-1.8-1.16-2.8-1.08-1.36.1-2.65.98-2.87,2.87-.07.94-.27,2.17-.51,3.77-8.06,10.42-10.5,28.81-9.8,38.44.17,2.28.85,4.81,3.78,4.6,3.92-.29,7.18-11.71,9.42-23.14.36.12.8.16,1.3.12l3.49-.26c7.49-.55,9.19,3.05,9.54,7.76.32,4.42-2.17,8.55-7.88,8.97-1.57.12-3.48-.53-5.49-1.53-.6-.32-1.18-.49-1.76-.45-1.78.13-3.09,1.88-2.96,3.59.07,1,.64,1.89,1.83,2.52,2.16,1.13,5.42,2.54,8.85,2.29,2.39-.18,4.64-.84,6.61-1.92.31.21.65.39,1.02.47,1.05.24,1.9.04,2.87-.38,1.24-.53,2.39-1.26,3.48-2.05,1.53-1.11,3-2.31,4.39-3.6.14-.13.28-.28.42-.41.02.31.06.61.11.87.71,3.51,3.49,5.72,7.34,4.94,3.59-.72,6.25-3.32,9.39-7.64,1.67,4.54,4.82,7.31,8.71,6.58,2.11-.39,4.33-1.75,6.72-4.53.43-.5.83-1.02,1.24-1.55l.18.84c.96,4.48,3.59,9.25,8.83,8.13.98-.21,1.92-.7,2.83-1.37.33.83.73,1.62,1.25,2.34-4.47.08-8.94.17-13.4.39-5.18.25-10.72.58-15.59,2.55-4.53,1.84-7.91,5.46-7.06,10.64.69,4.22,3.63,7.58,7.62,9.01,8.77,3.16,19.53-2.14,26.84-6.62,3.05-1.88,6.05-4,8.9-6.32-4.05,10.75-9.79,26.1-13.51,28.5-1.61.19-2.47,1.48-2.54,2.81-.08,1.53.85,3.04,2.84,3.14,7.68.38,15.85-24.43,20.35-36.42,4.49.24,8.99.56,13.48.72ZM221.1,12.6c.49-1.13.92-1.88,1.13-1.92.07-.01.17.11.18.18.06.28-.09.97-.32,2.26-.63,3.2-3.92,13.46-4.8,13.08-.88-.39,2.43-10.45,3.81-13.6ZM203,13.86c.54-1.11,1-1.83,1.21-1.87.07-.01.16.12.18.19.05.28-.13.96-.42,2.25-.77,3.17-4.86,12.92-5.43,12.63-.57-.29,2.95-10.11,4.47-13.19ZM151.73,27.86c.69-4.21,1.27-8.13,1.7-11.1,2.06-2.23,4.47-3.63,7.39-3.84,3.28-.24,5.48,1.39,5.71,4.53.3,4.14-3.39,9.5-14.8,10.41ZM194.13,69.73c-.05.19-.04.14,0,0h0ZM202.02,73.71c-.57.09-.17.02,0,0h0ZM203.42,73.46c-.43.09-.86.17-1.3.24-.04,0-.06.01-.1.02-.23.03-.46.05-.69.07-.89.05-1.76.06-2.65.02-.12,0-.23-.02-.35-.03-.01,0-.02,0-.03,0-.34-.07-.67-.14-1-.23-.18-.05-.56-.2-.69-.24-.23-.12-.46-.25-.7-.37-.1-.05-.16-.08-.22-.11,0-.02-.03-.05-.09-.11-.19-.2-.39-.39-.58-.6-.09-.15-.19-.29-.28-.44-.07-.12-.13-.25-.2-.37-.02-.03-.02-.03-.03-.06-.14-.42-.27-.83-.36-1.27,0-.14,0-.32,0-.42.03-.1.07-.21.1-.3-.2.5.16-.11.07-.07.17-.19.34-.37.53-.54,0,0,0,0,0,0,.18-.12.36-.24.55-.34,1.1-.58.88-.51,2.09-.9,4.4-1.4,8.86-1.59,13.51-1.77,3.21-.12,6.43-.21,9.65-.28-3.51,2.43-7.39,4.7-11.12,6.2-1.99.8-4.04,1.46-6.14,1.9Z"/>
      <path class="cls-17" d="M180.63,23.23c.09.11.18.22.28.33,0,0,0,0,0,0,0,0,0,0,0,0,.07.1.14.21.21.32,0,0,0,0,0,0,.04.15.07.3.1.45,0,.03.03.28.04.29.02.22.03.44.04.66,0,.59-.01,1.17,0,1.76.02.67.48,1.38,1.17,1.53.65.15,1.48-.08,1.8-.73.2-.41.45-.8.71-1.18.08-.11.15-.22.23-.33.01-.01.07-.09.11-.15.04-.05.16-.2.18-.22.08-.1.16-.19.25-.29.14-.15.28-.3.42-.44.02-.02.1-.08.13-.1.11-.07.21-.13.32-.19-.26.15.1-.03.16-.05.14-.04.28-.07.42-.1.04,0,.04,0,.05-.01,0,0,0,0,.03,0,.17,0,.35-.02.52-.03.64-.02,1.2-.38,1.45-.98.23-.54.16-1.34-.33-1.74-.18-.15-.36-.31-.53-.49-.09-.09-.17-.18-.25-.28-.02-.02-.01-.01-.02-.02-.01-.02-.02-.03-.05-.08-.12-.19-.24-.38-.34-.59-.01-.03-.01-.03-.02-.03,0-.02,0-.03-.02-.08-.03-.12-.07-.24-.09-.36,0-.02,0-.03-.01-.04,0-.03,0-.04,0-.08,0-.1-.01-.2-.02-.29,0-.11,0-.22,0-.33,0-.03,0-.05,0-.07,0-.17.09-.39.12-.53.06-.25.12-.5.18-.75.41-1.76-1.93-2.77-2.91-1.23-.3.48-.65.93-.95,1.42,0,0,0,0,0,0-.02.03-.05.06-.07.09-.07.09-.15.18-.23.27-.17.19-.34.37-.52.55-.1.11-.51.63-.64.62.18-.13.22-.16.12-.1-.05.03-.09.05-.14.08.33-.19.05-.03-.06,0-.07.02-.15.03-.23.05-.02,0-.18.03-.24.03-.14,0-.29.01-.43,0-.12,0-.55-.07-.06,0-.68-.11-1.44.07-1.8.73-.33.63-.26,1.4.25,1.93.22.23.44.47.65.71Z"/>
    </g>
  </g>
  <g id="Billiam">
    <g>
      <g>
        <polygon class="cls-18" points="27.37 35.37 34.32 28.25 29.31 21.61 20.42 16.66 21.89 28.02 27.37 35.37"/>
        <g class="cls-23">
          <polygon class="cls-5" points="21.02 16.67 24.7 19.51 21.07 22.14 21.02 16.67"/>
          <line class="cls-15" x1="25.9" y1="27.36" x2="29.18" y2="31.21"/>
          <line class="cls-15" x1="28.29" y1="25.58" x2="31.57" y2="29.4"/>
        </g>
        <polygon class="cls-10" points="27.37 35.37 34.32 28.25 29.31 21.61 20.42 16.66 21.89 28.02 27.37 35.37"/>
      </g>
      <path class="cls-3" d="M40.26,80.68s-8.81-3.3-9.94,4.62c-1.21,8.5,4.92,12.99,8.13,13.37,2.59.3,5.08-2.11,5.08-2.11,0,0,2.8,3.31,6.59,5.14,8.74,4.22,23.17,5.55,35.03,2.39,18.62-4.96,29.72-13.12,32.49-24.36,0,0,5.86.13,7.81-4.12,1.79-3.91,2.33-8.63,1.07-12.33-1.59-4.68-11.82-7.03-11.16,1.03,0,0-10.19-40.16-45.12-33.81-34.92,6.35-29.99,50.17-29.99,50.17Z"/>
      <circle class="cls-17" cx="63.57" cy="78.02" r="3.54"/>
      <circle class="cls-17" cx="39.45" cy="94.78" r=".94"/>
      <circle class="cls-17" cx="89.83" cy="70.77" r="3.54"/>
      <path class="cls-9" d="M75.85,78.04c.94-1.61,2.7-1.95,4.32-1.02"/>
      <g>
        <path class="cls-19" d="M42.13,84.19c-3.47,1.97-3.03-3.06-3.81-4.03s-.83.11-2.5-1.72c-.9-.99-1.81-.23-3.11-1.22-1.46-1.11-3.58-5.12-3.99-6.83,0,0-3.27,4.18-3.77,1.48-.88-4.73,2.02-6.43,2.02-6.43,0,0-4.5-12.86-2.13-16.88,0,0-1.68.12-3.73.96-1.92.78-.47-5.11,0-6.2,1.09-2.51,9.32-19.18,25.09-24.65,15.76-5.48,19.72-1.18,19.72-1.18,0,0,18.82-14.63,33.9-1.7s18.06,22.65,18.11,26.33c0,0,.86,4.84,5.4.99,0,0,.3,7.93-4.3,7.49,0,0,.39,5.15-2.81,7.82,0,0,3.05,9.95-1.25,11.41s-4.5-10.53-4.5-10.53l-4.53-3.46c-.01,4.22-4.2,5.05-4.2,5.05-.54-5.96-3.96-6.01-3.96-6.01,0,0-1.97,2.04-5.38.29,0,0-7.56,4.1-10.75-5.52-2.56-7.71-.38-15.61-5.31-15.96-2.99-.21-4.99,5.14-4.09,8.94,0,0-3.01-9.93-7.29-7.58-3.87,2.12-7.2,17.63,5.56,27.72,0,0-1.16,2.93-7.51.67,0,0-4.07,4.34-7.08-2.73,0,0,.43,7.01-5,8.36,0,0-.03-9.76-1.74-12.02,0,0-.49,9.07-3.93,10.8,0,0-.34,5.85-5.7,7.02,0,0,6.04,7.34,2.57,9.32Z"/>
        <g class="cls-20">
          <path class="cls-4" d="M42.53,53.39c2.36,4.07,3.32,10.13,2.58,15.48"/>
          <path class="cls-4" d="M39.03,74.2c-2.75-2.29-4.28-5.96-3.97-9.52"/>
          <path class="cls-4" d="M24.95,48.16c1.06-1.5,1.78-2.76,3.7-3.92"/>
          <path class="cls-8" d="M62.01,23.62c1.77-.4,3.7.01,5.15,1.1"/>
          <path class="cls-8" d="M71.2,24.9c.72-2.27,3.06-3.93,5.44-3.86"/>
          <path class="cls-8" d="M60.8,30.78c2.29-4.08,7.01-1.02,8.18-.02"/>
          <path class="cls-8" d="M73.07,29.57c.8-1.62,2.69-2.63,4.49-2.39"/>
          <path class="cls-8" d="M92.4,55.16c-2.52-1.65-4.87-6.81-4.76-11.18"/>
          <path class="cls-8" d="M110.53,58.66c-4.89-1.9-9.1-8.9-9.93-14.09"/>
          <path class="cls-8" d="M96.72,38.3l.4,2.19"/>
          <path class="cls-8" d="M93.46,45.91c.38,3.35,1.89,6.12,4.32,8.96"/>
          <path class="cls-8" d="M115.89,58.38c-.1-3.49-.89-6.95-2.3-10.14"/>
          <path class="cls-8" d="M55.96,60.6c-1.28-2.79-2.07-5.93-2.29-9.07"/>
          <path class="cls-4" d="M49.33,56.69c0-2.35-.44-4.7-1.28-6.89"/>
          <path class="cls-8" d="M106.95,34.55c1.23,2.46,2.18,5.06,2.81,7.73"/>
          <path class="cls-4" d="M40.32,34.51c-2.95,4.09-3.01,8.37-1.37,11.94"/>
          <path class="cls-8" d="M62.89,62.78s-3.81-3.08-4.09-6.45"/>
        </g>
        <path class="cls-4" d="M42.13,84.19c-3.47,1.97-3.03-3.06-3.81-4.03s-.83.11-2.5-1.72c-.9-.99-1.81-.23-3.11-1.22-1.46-1.11-3.58-5.12-3.99-6.83,0,0-3.27,4.18-3.77,1.48-.88-4.73,2.02-6.43,2.02-6.43,0,0-4.5-12.86-2.13-16.88,0,0-1.68.12-3.73.96-1.92.78-.47-5.11,0-6.2,1.09-2.51,9.32-19.18,25.09-24.65,15.76-5.48,19.72-1.18,19.72-1.18,0,0,18.82-14.63,33.9-1.7s18.06,22.65,18.11,26.33c0,0,.86,4.84,5.4.99,0,0,.3,7.93-4.3,7.49,0,0,.39,5.15-2.81,7.82,0,0,3.05,9.95-1.25,11.41s-4.5-10.53-4.5-10.53l-4.53-3.46c-.01,4.22-4.2,5.05-4.2,5.05-.54-5.96-3.96-6.01-3.96-6.01,0,0-1.97,2.04-5.38.29,0,0-7.56,4.1-10.75-5.52-2.56-7.71-.38-15.61-5.31-15.96-2.99-.21-4.99,5.14-4.09,8.94,0,0-3.01-9.93-7.29-7.58-3.87,2.12-7.2,17.63,5.56,27.72,0,0-1.16,2.93-7.51.67,0,0-4.07,4.34-7.08-2.73,0,0,.43,7.01-5,8.36,0,0-.03-9.76-1.74-12.02,0,0-.49,9.07-3.93,10.8,0,0-.34,5.85-5.7,7.02,0,0,6.04,7.34,2.57,9.32Z"/>
      </g>
      <ellipse class="cls-22" cx="56.87" cy="88.27" rx="6.4" ry="4.17" transform="translate(-18.72 15.39) rotate(-13.25)"/>
      <ellipse class="cls-22" cx="101.98" cy="77.09" rx="6.89" ry="4.24" transform="translate(-14.96 25.43) rotate(-13.25)"/>
      <g>
        <path class="cls-17" d="M80.45,89.17c-2.46.59-10-.07-8.89-3.69s5.53-.33,8.08-1.34c2.13-.84,5-3.55,7.33-1.88,2.33,1.68-.16,5.38-6.52,6.91Z"/>
        <g class="cls-21">
          <path class="cls-16" d="M75.55,88.92s2.02-2.48,4.5-2.95,5.22,1.13,5.22,1.13c0,0-2.06,1.55-5.07,2.1-3.02.55-4.64-.28-4.64-.28Z"/>
        </g>
        <path class="cls-11" d="M80.45,89.17c-2.46.59-10-.07-8.89-3.69s5.53-.33,8.08-1.34c2.13-.84,5-3.55,7.33-1.88,2.33,1.68-.16,5.38-6.52,6.91Z"/>
      </g>
      <path class="cls-14" d="M41.09,93.16c-1.92-.91-1.41-3.77-2.32-5.69"/>
      <path class="cls-14" d="M34.46,87.77c-.91-1.31.56-4.31,2.27-3.06"/>
      <circle class="cls-17" cx="121.3" cy="74.94" r=".94"/>
      <path class="cls-14" d="M119.36,74.07c1.48-1.52,0-4.03.17-6.14"/>
      <path class="cls-14" d="M123.34,65.55c.39-1.54-2.04-3.84-3.2-2.07"/>
      <polyline class="cls-15" points="22.48 27.7 23.91 24.7 26.02 25.04 26.15 22.73 29.27 22.32"/>
      <path class="cls-7" d="M64.52,15.44c0,5.21,16.17,3.61,29.33,8.86s19.53,17.72,23.92,17.09,5.44-15.41.74-21.37c-6.38-8.08-14.35-7.19-14.35-7.19,0,0,3.37-5.32-.7-4.07-4.07,1.25-4.39,3.27-4.39,3.27,0,0-5.3-6.43-15.26-6.97-8.05-.43-19.31.09-19.3,10.37Z"/>
      <path class="cls-1" d="M112.31,18.7c1.86.59,3.34,2.23,3.75,4.13"/>
      <path class="cls-1" d="M117.21,27.46l.35,2.97"/>
      <rect class="cls-6" x="54.57" y="68.15" width="10.91" height="4.03" rx="2.02" ry="2.02" transform="translate(-16.68 18.76) rotate(-15.63)"/>
      <rect class="cls-6" x="82.55" y="60.83" width="10.91" height="4.03" rx="2.02" ry="2.02" transform="translate(-12.06 21.85) rotate(-13.25)"/>
    </g>
  </g>
</svg>